<svg width="29" height="29" viewBox="0 0 29 29" fill="none" xmlns="http://www.w3.org/2000/svg">
<path d="M14.0625 6.8125C18 6.8125 21.25 10.0625 21.25 14C21.25 18 18 21.1875 14.0625 21.1875C10.0625 21.1875 6.875 18 6.875 14C6.875 10.0625 10.0625 6.8125 14.0625 6.8125ZM14.0625 18.6875C16.625 18.6875 18.6875 16.625 18.6875 14C18.6875 11.4375 16.625 9.375 14.0625 9.375C11.4375 9.375 9.375 11.4375 9.375 14C9.375 16.625 11.5 18.6875 14.0625 18.6875ZM23.1875 6.5625C23.1875 7.5 22.4375 8.25 21.5 8.25C20.5625 8.25 19.8125 7.5 19.8125 6.5625C19.8125 5.625 20.5625 4.875 21.5 4.875C22.4375 4.875 23.1875 5.625 23.1875 6.5625ZM27.9375 8.25C28.0625 10.5625 28.0625 17.5 27.9375 19.8125C27.8125 22.0625 27.3125 24 25.6875 25.6875C24.0625 27.3125 22.0625 27.8125 19.8125 27.9375C17.5 28.0625 10.5625 28.0625 8.25 27.9375C6 27.8125 4.0625 27.3125 2.375 25.6875C0.75 24 0.25 22.0625 0.125 19.8125C0 17.5 0 10.5625 0.125 8.25C0.25 6 0.75 4 2.375 2.375C4.0625 0.75 6 0.25 8.25 0.125C10.5625 0 17.5 0 19.8125 0.125C22.0625 0.25 24.0625 0.75 25.6875 2.375C27.3125 4 27.8125 6 27.9375 8.25ZM24.9375 22.25C25.6875 20.4375 25.5 16.0625 25.5 14C25.5 12 25.6875 7.625 24.9375 5.75C24.4375 4.5625 23.5 3.5625 22.3125 3.125C20.4375 2.375 16.0625 2.5625 14.0625 2.5625C12 2.5625 7.625 2.375 5.8125 3.125C4.5625 3.625 3.625 4.5625 3.125 5.75C2.375 7.625 2.5625 12 2.5625 14C2.5625 16.0625 2.375 20.4375 3.125 22.25C3.625 23.5 4.5625 24.4375 5.8125 24.9375C7.625 25.6875 12 25.5 14.0625 25.5C16.0625 25.5 20.4375 25.6875 22.3125 24.9375C23.5 24.4375 24.5 23.5 24.9375 22.25Z" fill="#808080"/>
</svg>
