<svg width="419" height="240" viewBox="0 0 419 240" fill="none" xmlns="http://www.w3.org/2000/svg">
<path d="M49.334 169.833C44.416 169.833 39.959 168.524 35.9631 165.905C31.9672 163.286 28.5092 160.205 25.5891 156.662C22.6691 152.965 20.3637 149.191 18.6732 145.34C17.1363 141.335 16.3678 138.023 16.3678 135.404C16.3678 133.094 16.8289 130.629 17.751 128.01C18.8268 125.237 20.21 122.696 21.9006 120.385C23.5912 118.074 25.5123 116.149 27.6639 114.608C29.8156 113.068 32.0441 112.298 34.3494 112.298C36.6547 112.298 38.499 112.76 39.8822 113.684C41.4191 114.454 42.5717 115.533 43.3402 116.919C44.2623 118.306 44.877 119.923 45.1844 121.772C45.4918 123.466 45.6455 125.237 45.6455 127.086C43.3402 128.78 41.4959 130.244 40.1127 131.476C38.8832 132.555 37.9611 133.479 37.3463 134.249C36.7316 135.019 36.3473 135.712 36.1936 136.329C36.04 136.791 35.9631 137.253 35.9631 137.715C35.9631 140.18 36.3473 142.336 37.1158 144.185C37.8842 145.879 38.8063 147.343 39.8822 148.575C40.958 149.653 42.1107 150.501 43.3402 151.117C44.7234 151.733 45.876 152.041 46.7982 152.041C48.9498 152.041 51.1783 151.502 53.4836 150.424C55.7889 149.191 57.8637 147.651 59.708 145.802C61.5522 143.954 63.0123 141.951 64.0881 139.795C65.3176 137.638 65.9324 135.635 65.9324 133.787C65.9324 129.628 64.8566 126.008 62.7049 122.927C60.5533 119.692 57.8637 116.842 54.6363 114.377C51.4088 111.759 47.9508 109.525 44.2623 107.677C40.5738 105.674 37.1926 103.825 34.1189 102.131C30.1229 99.9743 26.0502 97.6637 21.9006 95.199C17.9047 92.7343 14.293 90.0385 11.0656 87.1117C7.83811 84.0308 5.14857 80.6419 2.99693 76.9448C0.998975 73.0937 0 68.6264 0 63.543C0 58.1515 1.22951 53.2221 3.68852 48.7548C6.14754 44.1335 9.29816 40.2054 13.1404 36.9705C17.1363 33.7356 21.5932 31.1938 26.5113 29.3453C31.4293 27.4968 36.2705 26.5725 41.0348 26.5725C47.7971 26.5725 54.4057 28.19 60.8606 31.4249C67.4693 34.6598 72.8484 38.742 76.9979 43.6714C81.1475 48.6008 83.6066 53.9153 84.375 59.6149C85.1434 65.3145 83.2223 70.706 78.6117 75.7895C76.1527 75.7895 73.9242 75.4814 71.9262 74.8652C69.9283 74.095 67.7766 73.7099 65.4713 73.7099C66.5471 69.2426 66.624 65.2375 65.7018 61.6945C64.7797 57.9974 63.166 54.9166 60.8606 52.4519C58.709 49.8331 56.0963 47.8306 53.0225 46.4442C50.1025 45.0578 47.1824 44.3646 44.2623 44.3646C41.3422 44.3646 38.499 45.0578 35.7326 46.4442C32.9662 47.6765 30.4303 49.371 28.125 51.5276C25.9734 53.5302 24.2059 55.8408 22.8227 58.4596C21.5932 61.0783 20.9785 63.62 20.9785 66.0847C20.9785 68.3954 21.5932 70.552 22.8227 72.5546C24.2059 74.5571 25.8965 76.4056 27.8945 78.1001C29.8924 79.6406 31.9672 81.104 34.1189 82.4904C36.2705 83.7227 38.2684 84.801 40.1127 85.7253C45.3381 88.4981 50.6404 91.4249 56.0195 94.5058C61.3986 97.4326 66.2397 100.822 70.543 104.673C74.8463 108.37 78.3811 112.76 81.1475 117.843C83.9139 122.927 85.2971 129.012 85.2971 136.098C85.2971 140.873 84.0676 145.34 81.6086 149.499C79.1496 153.659 76.0758 157.279 72.3873 160.359C68.8525 163.286 65.0102 165.597 60.8606 167.291C56.7111 168.986 52.8688 169.833 49.334 169.833Z" fill="white"/>
<path d="M147.346 191.784C146.424 187.471 145.502 181.617 144.58 174.223C143.812 166.675 142.813 158.742 141.583 150.424C140.507 141.951 139.124 133.556 137.434 125.237C135.897 116.919 134.052 109.756 131.901 103.748L115.072 104.442C114.457 110.295 113.919 115.687 113.458 120.616C112.997 124.775 112.613 128.858 112.305 132.863C111.998 136.714 111.768 139.255 111.614 140.488C111.307 143.261 111.153 146.264 111.153 149.499C111.153 152.734 111.153 156.046 111.153 159.435C111.306 162.67 111.46 165.905 111.614 169.14C111.921 172.375 112.305 175.379 112.767 178.151C111.691 179.076 110.384 179.769 108.847 180.231C107.464 180.539 105.927 180.616 104.237 180.462C102.7 180.154 101.24 179.692 99.8567 179.076C98.4735 178.306 97.3209 177.381 96.3987 176.303C96.0913 173.222 95.9376 168.601 95.9376 162.439C96.0913 156.123 96.3219 149.499 96.6292 142.567C96.9366 135.635 97.3209 129.012 97.7819 122.696C98.243 116.226 98.7809 111.142 99.3956 107.445C99.703 105.597 99.6262 104.442 99.1651 103.979C98.704 103.363 98.0893 102.978 97.3209 102.824C96.7061 102.516 96.0913 102.208 95.4766 101.9C94.8618 101.438 94.5545 100.359 94.5545 98.665C94.5545 96.9705 94.9387 95.5071 95.7071 94.2747C96.6293 92.8883 97.5514 91.81 98.4735 91.0398C99.5493 90.1155 100.471 89.4994 101.24 89.1913C102.008 88.8832 102.393 88.8832 102.393 89.1913C103.622 84.57 104.775 78.7933 105.851 71.8614C107.08 64.7754 108.463 57.5353 110 50.1412C111.691 42.5931 113.689 35.353 115.994 28.4211C118.453 21.335 121.527 15.4044 125.215 10.629C125.984 10.475 127.29 10.8601 129.134 11.7843C131.132 12.5546 132.823 13.5558 134.206 14.7882C135.436 20.4878 136.742 26.1874 138.125 31.887C139.662 37.5866 141.045 43.3633 142.275 49.2169C143.504 54.9166 144.58 60.7702 145.502 66.7779C146.424 72.7856 146.962 79.0244 147.116 85.4942C148.192 85.8023 149.344 86.4185 150.574 87.3428C151.957 88.113 153.187 89.1143 154.262 90.3466C155.492 91.4249 156.491 92.5802 157.259 93.8126C158.182 94.8909 158.643 95.9692 158.643 97.0475C158.643 98.1258 158.258 99.3582 157.49 100.745C156.875 102.131 156.03 103.517 154.954 104.904C154.032 106.29 153.11 107.754 152.188 109.294C151.266 110.68 150.574 111.99 150.113 113.222L161.178 189.936C161.025 189.782 160.564 190.09 159.795 190.86C159.027 191.784 158.028 192.555 156.798 193.171C155.722 193.941 154.339 194.326 152.649 194.326C151.112 194.326 149.344 193.479 147.346 191.784ZM131.44 88.267C130.518 83.9538 129.519 79.1784 128.443 73.9409C127.367 68.7035 126.445 63.9281 125.676 59.6149C123.832 64.8524 122.295 70.1669 121.066 75.5584C119.836 80.9499 118.837 85.7253 118.069 89.8845C121.604 89.8845 124.447 89.6534 126.599 89.1913C128.904 88.5751 130.518 88.267 131.44 88.267Z" fill="white"/>
<path d="M202.105 158.511C200.568 158.819 198.801 159.358 196.803 160.128C194.959 160.899 193.038 161.746 191.04 162.67C189.042 163.44 187.121 164.211 185.276 164.981C183.432 165.597 181.818 165.905 180.435 165.905C178.437 165.905 176.439 165.058 174.441 163.363C172.443 161.515 171.291 159.743 170.983 158.049C170.215 150.963 169.6 143.646 169.139 136.098C168.678 128.395 168.294 120.693 167.986 112.991C167.679 105.135 167.372 97.3556 167.064 89.6534C166.911 81.9512 166.68 74.4801 166.373 67.2401C166.065 67.086 165.374 66.7009 164.298 66.0847C163.376 65.4685 162.3 64.6983 161.07 63.7741C159.995 62.8498 158.996 61.8485 158.073 60.7702C157.151 59.6919 156.69 58.5366 156.69 57.3042C156.69 55.4557 157.459 53.6842 158.996 51.9897C160.532 50.1412 162.223 48.6008 164.067 47.3684C162.838 40.4365 162.991 35.276 164.528 31.887C166.219 28.4981 168.217 26.4955 170.522 25.8793C172.981 25.2632 175.287 25.9564 177.438 27.9589C179.59 29.8074 180.742 32.5802 180.896 36.2773C180.896 37.2015 180.819 38.1258 180.666 39.0501C180.666 39.9743 180.742 40.8986 180.896 41.8228C181.204 44.1335 182.664 45.2888 185.276 45.2888C188.043 45.2888 191.654 45.0578 196.111 44.5956C200.568 44.1335 205.333 43.7484 210.404 43.4403C215.476 43.1322 220.548 43.1322 225.62 43.4403C230.845 43.5944 235.532 44.3646 239.682 45.751C243.832 46.9833 247.213 49.0629 249.825 51.9897C252.438 54.7625 253.745 58.5366 253.745 63.3119C253.745 65.7766 252.899 68.2413 251.209 70.706C249.518 73.1707 247.443 75.5584 244.984 77.8691C242.679 80.0257 240.22 82.1053 237.607 84.1078C235.148 86.1104 232.997 87.8819 231.152 89.4223C234.226 91.5789 237.377 93.1964 240.604 94.2747C243.832 95.199 246.752 96.8935 249.364 99.3582C251.977 101.823 253.975 104.981 255.358 108.832C256.895 112.683 257.664 116.303 257.664 119.692C257.664 126.008 255.358 131.553 250.748 136.329C246.137 140.95 240.758 144.801 234.61 147.882C228.463 150.963 222.315 153.427 216.168 155.276C210.02 156.97 205.333 158.049 202.105 158.511ZM209.482 58.2285C205.025 58.5366 200.568 59.0757 196.111 59.846C191.654 60.4621 187.121 61.0783 182.51 61.6945V94.2747C187.428 91.656 192.346 89.2683 197.264 87.1117C202.336 84.801 207.254 82.4904 212.018 80.1797C216.782 77.8691 221.239 75.3273 225.389 72.5546C229.692 69.7818 233.534 66.3928 236.916 62.3877C231.998 60.2311 227.31 58.9217 222.853 58.4596C218.396 57.9974 213.939 57.9204 209.482 58.2285ZM218.473 100.513C217.244 100.513 215.476 100.899 213.171 101.669C211.019 102.285 208.791 103.055 206.485 103.979C203.873 105.058 201.106 106.059 198.186 106.983C195.42 107.754 192.576 107.754 189.656 106.983C188.888 106.829 188.043 106.444 187.121 105.828C186.198 105.212 184.662 103.825 182.51 101.669C182.817 107.06 183.048 111.759 183.202 115.764C183.509 119.615 183.663 122.85 183.663 125.469C183.816 128.087 183.893 130.244 183.893 131.938C184.047 133.633 184.124 135.019 184.124 136.098C183.97 138.1 183.663 139.41 183.202 140.026C182.894 140.642 182.279 141.72 181.357 143.261H196.111C204.872 140.796 212.633 138.177 219.395 135.404C222.315 134.172 225.158 132.863 227.925 131.476C230.691 130.09 233.15 128.703 235.302 127.317C237.454 125.777 239.144 124.236 240.374 122.696C241.603 121.001 242.218 119.307 242.218 117.612C242.064 114.84 240.988 112.452 238.99 110.449C236.992 108.293 234.687 106.521 232.074 105.135C229.615 103.594 227.08 102.439 224.467 101.669C221.854 100.899 219.856 100.513 218.473 100.513Z" fill="white"/>
<path d="M337.783 177.227C335.785 181.849 333.326 184.082 330.406 183.928C327.639 183.774 324.566 182.696 321.184 180.693C319.34 174.377 317.112 167.831 314.499 161.053C312.04 154.275 309.504 147.266 306.891 140.026C305.508 136.175 303.664 131.553 301.359 126.162C299.053 120.77 296.748 115.533 294.443 110.449C292.291 105.366 290.37 100.899 288.679 97.0475C287.142 93.0424 286.374 90.5777 286.374 89.6534C286.374 86.8806 286.681 85.0321 287.296 84.1078C288.064 83.1836 288.987 82.5674 290.062 82.2593C291.292 81.7972 292.598 81.335 293.982 80.8729C295.518 80.2567 296.978 78.8703 298.362 76.7137C300.36 73.941 301.82 71.5533 302.742 69.5507C303.664 67.3941 304.279 65.3915 304.586 63.543C304.893 61.6945 305.047 59.846 305.047 57.9974C305.047 56.1489 305.047 53.9923 305.047 51.5276C305.047 47.8305 304.74 44.2105 304.125 40.6675C303.664 36.9705 302.665 33.7356 301.128 30.9628C299.591 28.19 297.363 25.9564 294.443 24.2619C291.522 22.5674 287.757 21.7201 283.146 21.7201C283.146 27.1117 283.223 33.3505 283.377 40.4365C283.531 47.5225 283.684 54.9166 283.838 62.6187C283.992 70.3209 284.069 78.2542 284.069 86.4185C284.222 94.4288 284.299 102.054 284.299 109.294C284.299 116.534 284.222 123.235 284.069 129.397C283.915 135.558 283.608 140.642 283.146 144.647C283.146 145.571 283.454 148.113 284.069 152.272C284.683 156.277 285.375 160.59 286.143 165.212C287.066 169.833 287.834 174.223 288.449 178.383C289.063 182.388 289.371 184.852 289.371 185.777C289.371 187.625 288.987 189.166 288.218 190.398C287.603 191.63 286.835 192.555 285.913 193.171C284.991 193.941 283.992 194.48 282.916 194.788C281.994 195.096 281.302 195.25 280.841 195.25C278.075 195.25 275.923 194.249 274.386 192.246C272.849 190.398 271.697 188.087 270.928 185.315C270.16 182.388 269.545 179.307 269.084 176.072C268.623 172.683 268.162 169.679 267.701 167.06C268.008 154.737 268.085 141.566 267.931 127.548C267.778 113.376 267.547 99.3582 267.24 85.4942C267.086 71.4763 266.932 57.9974 266.779 45.0578C266.779 31.9641 267.086 20.3338 267.701 10.1669C267.701 9.24262 267.701 8.24133 267.701 7.16303C267.701 5.93068 267.854 4.77536 268.162 3.69705C268.623 2.61874 269.315 1.7715 270.237 1.15533C271.159 0.385109 272.619 0 274.617 0C276.307 0 277.998 0.847238 279.688 2.54171C281.379 4.08216 282.916 5.23749 284.299 6.00771C286.143 6.77792 288.602 7.24005 291.676 7.3941C294.75 7.3941 297.977 8.24133 301.359 9.93581C304.893 11.7843 307.967 14.3261 310.58 17.561C313.193 20.7959 315.344 24.3389 317.035 28.19C318.725 32.0411 319.955 35.9692 320.723 39.9743C321.645 43.8254 322.107 47.4454 322.107 50.8344C322.107 57.9204 321.338 64.0051 319.801 69.0886C318.418 74.018 316.804 78.1001 314.96 81.3351C313.269 84.4159 311.656 86.7266 310.119 88.267C308.736 89.8074 308.044 90.5777 308.044 90.5777C308.044 91.0398 308.736 93.5045 310.119 97.9718C311.656 102.285 313.5 107.677 315.652 114.146C317.803 120.462 320.109 127.317 322.568 134.711C325.18 141.951 327.562 148.729 329.714 155.045C332.019 161.207 333.864 166.444 335.247 170.757C336.784 174.917 337.629 177.073 337.783 177.227Z" fill="white"/>
<path d="M411.434 59.1528C402.213 59.923 392.838 60.5392 383.309 61.0013C373.781 61.4634 364.406 62.2336 355.184 63.3119C354.57 63.9281 354.109 64.3132 353.801 64.4673C353.494 64.4673 353.263 65.2375 353.11 66.7779C352.956 68.1643 352.879 70.7831 352.879 74.6341C352.879 78.3312 352.879 84.1078 352.879 91.9641C355.492 94.4288 358.95 95.6611 363.253 95.6611C364.636 95.6611 365.481 95.5841 365.789 95.43C366.25 95.276 366.557 95.122 366.711 94.9679C366.865 94.6598 367.095 94.4288 367.403 94.2747C367.71 93.9666 368.325 93.8126 369.247 93.8126C370.323 93.8126 372.167 93.9666 374.78 94.2747C377.392 94.4288 380.312 94.6598 383.54 94.9679C386.767 95.122 390.072 95.43 393.453 95.8922C396.988 96.2003 400.292 96.4313 403.366 96.5854C405.671 97.6637 407.208 99.2041 407.976 101.207C408.898 103.055 409.206 104.904 408.898 106.752C408.591 108.601 407.669 110.218 406.132 111.605C404.749 112.837 402.828 113.453 400.369 113.453C399.139 113.453 396.373 113.376 392.07 113.222C387.92 112.914 383.463 112.683 378.699 112.529C374.088 112.221 369.631 111.99 365.328 111.836C361.178 111.528 358.489 111.374 357.259 111.374C355.107 111.374 353.801 112.452 353.34 114.608C352.879 116.457 352.725 118.845 352.879 121.772C353.186 124.698 353.647 127.702 354.262 130.783C355.031 133.864 355.799 136.791 356.568 139.564C357.49 142.336 358.335 144.493 359.103 146.033C362.177 145.725 365.405 145.263 368.786 144.647C372.167 144.031 375.548 143.415 378.929 142.798C382.31 142.028 385.615 141.412 388.842 140.95C392.223 140.334 395.374 140.026 398.294 140.026C401.675 140.026 404.057 140.642 405.441 141.874C406.824 143.107 407.669 144.57 407.976 146.264C408.284 147.959 408.207 149.884 407.746 152.041C407.438 154.044 407.208 155.815 407.054 157.356C402.444 157.202 397.064 157.587 390.917 158.511C384.923 159.435 379.006 160.745 373.166 162.439C371.936 162.747 370.553 163.363 369.016 164.288C367.633 165.058 366.096 165.905 364.406 166.829C362.869 167.599 361.332 168.293 359.795 168.909C358.412 169.525 357.259 169.833 356.337 169.833C354.185 169.833 351.957 169.371 349.652 168.447C347.5 167.522 345.579 166.444 343.888 165.212C342.198 157.356 340.891 149.114 339.969 140.488C339.201 131.707 338.125 122.696 336.742 113.453C335.051 112.529 333.361 111.065 331.67 109.063C330.133 106.906 329.365 104.75 329.365 102.593C329.365 101.669 329.672 100.745 330.287 99.8203C331.055 98.896 331.824 98.0488 332.592 97.2786C333.514 96.3543 334.36 95.43 335.128 94.5058C335.896 93.5815 336.434 92.5802 336.742 91.5019C337.356 88.7291 337.587 85.8023 337.433 82.7214C337.28 79.6406 336.972 76.5597 336.511 73.4788C336.204 70.398 335.82 67.3941 335.359 64.4673C334.897 61.3864 334.667 58.3825 334.667 55.4557C334.667 52.3748 334.513 48.9859 334.206 45.2888C334.052 41.5918 334.206 38.1258 334.667 34.8909C335.128 31.656 336.127 28.9602 337.664 26.8036C339.201 24.647 341.737 23.5687 345.271 23.5687C346.655 24.4929 347.884 25.8793 348.96 27.7279C350.036 29.4223 350.881 31.3479 351.496 33.5045C352.264 35.5071 352.725 37.4326 352.879 39.2811C353.033 41.1297 352.956 42.5931 352.648 43.6714C357.259 44.1335 361.793 44.2875 366.25 44.1335C370.707 43.9795 375.164 43.7484 379.621 43.4403C384.078 42.9782 388.535 42.516 392.992 42.0539C397.449 41.5918 401.906 41.3607 406.363 41.3607C410.051 41.3607 412.894 42.285 414.892 44.1335C417.044 45.828 418.35 47.7535 418.811 49.9101C419.272 52.0668 418.888 54.1463 417.659 56.1489C416.429 57.9974 414.354 58.9987 411.434 59.1528Z" fill="white"/>
<path d="M108.492 239.422V205.725H128.663V209.673H113.054V219.926H126.502V223.777H113.054V235.475H128.663V239.422H108.492Z" fill="white"/>
<path d="M134.652 239.422V214.39H138.83V219.83C139.246 218.771 139.807 217.792 140.511 216.893C141.216 215.963 142.096 215.225 143.153 214.679C144.209 214.101 145.442 213.813 146.851 213.813C147.331 213.813 147.811 213.845 148.292 213.909C148.772 213.941 149.172 214.005 149.492 214.101L148.196 218.578C147.587 218.322 146.867 218.193 146.034 218.193C144.85 218.193 143.713 218.53 142.624 219.204C141.568 219.878 140.687 220.921 139.983 222.333C139.31 223.745 138.974 225.542 138.974 227.725V239.422H134.652Z" fill="white"/>
<path d="M153.835 239.422V214.39H158.157V239.422H153.835ZM155.996 210.106C155.163 210.106 154.443 209.801 153.835 209.191C153.258 208.582 152.97 207.875 152.97 207.073C152.97 206.143 153.242 205.404 153.787 204.859C154.331 204.313 155.067 204.04 155.996 204.04C156.828 204.04 157.533 204.345 158.109 204.955C158.717 205.533 159.022 206.239 159.022 207.073C159.022 207.972 158.749 208.71 158.205 209.288C157.661 209.833 156.924 210.106 155.996 210.106Z" fill="white"/>
<path d="M175.927 240C173.558 240 171.477 239.454 169.684 238.363C167.923 237.24 166.562 235.7 165.601 233.742C164.641 231.752 164.161 229.474 164.161 226.906C164.161 224.499 164.641 222.301 165.601 220.311C166.594 218.322 168.003 216.749 169.828 215.594C171.653 214.406 173.798 213.813 176.264 213.813C177.672 213.813 178.905 213.941 179.962 214.198C181.05 214.454 182.091 214.823 183.084 215.305L181.787 218.963C180.89 218.514 180.026 218.193 179.193 218.001C178.393 217.776 177.496 217.664 176.504 217.664C174.262 217.664 172.373 218.482 170.836 220.119C169.332 221.723 168.579 223.954 168.579 226.81C168.579 228.543 168.899 230.116 169.54 231.528C170.18 232.94 171.061 234.063 172.181 234.897C173.334 235.732 174.679 236.149 176.216 236.149C177.432 236.149 178.473 236.021 179.337 235.764C180.202 235.475 181.13 235.074 182.123 234.56L183.468 238.219C182.475 238.764 181.355 239.198 180.106 239.519C178.889 239.84 177.496 240 175.927 240Z" fill="white"/>
<path d="M203.374 239.422V205.725H223.306V209.673H207.937V219.974H220.76V223.729H207.937V239.422H203.374Z" fill="white"/>
<path d="M236.194 240C232.608 240 229.759 238.861 227.645 236.582C225.564 234.272 224.523 231.046 224.523 226.906C224.523 224.403 224.988 222.173 225.916 220.215C226.877 218.225 228.206 216.669 229.903 215.546C231.6 214.39 233.569 213.813 235.81 213.813C238.211 213.813 240.197 214.342 241.765 215.401C243.366 216.428 244.567 217.824 245.368 219.589C246.168 221.354 246.568 223.296 246.568 225.414C246.568 226.537 246.52 227.628 246.424 228.687H228.942C229.23 231.03 230.047 232.859 231.391 234.175C232.736 235.491 234.513 236.149 236.723 236.149C238.163 236.149 239.46 236.004 240.613 235.716C241.765 235.395 242.87 234.994 243.927 234.512L244.935 238.219C243.783 238.732 242.486 239.15 241.045 239.47C239.604 239.823 237.987 240 236.194 240ZM228.894 225.173H242.582C242.582 222.734 241.974 220.857 240.757 219.541C239.54 218.225 237.859 217.567 235.714 217.567C233.857 217.567 232.32 218.225 231.103 219.541C229.887 220.825 229.15 222.702 228.894 225.173Z" fill="white"/>
<path d="M252.329 239.422V214.39H256.507V219.83C256.924 218.771 257.484 217.792 258.188 216.893C258.893 215.963 259.773 215.225 260.83 214.679C261.886 214.101 263.119 213.813 264.528 213.813C265.008 213.813 265.488 213.845 265.969 213.909C266.449 213.941 266.849 214.005 267.169 214.101L265.873 218.578C265.264 218.322 264.544 218.193 263.711 218.193C262.527 218.193 261.39 218.53 260.301 219.204C259.245 219.878 258.364 220.921 257.66 222.333C256.988 223.745 256.651 225.542 256.651 227.725V239.422H252.329Z" fill="white"/>
<path d="M280.048 240C276.462 240 273.612 238.861 271.499 236.582C269.417 234.272 268.377 231.046 268.377 226.906C268.377 224.403 268.841 222.173 269.77 220.215C270.73 218.225 272.059 216.669 273.756 215.546C275.453 214.39 277.422 213.813 279.663 213.813C282.065 213.813 284.05 214.342 285.619 215.401C287.22 216.428 288.42 217.824 289.221 219.589C290.021 221.354 290.422 223.296 290.422 225.414C290.422 226.537 290.374 227.628 290.277 228.687H272.795C273.084 231.03 273.9 232.859 275.245 234.175C276.59 235.491 278.367 236.149 280.576 236.149C282.017 236.149 283.313 236.004 284.466 235.716C285.619 235.395 286.723 234.994 287.78 234.512L288.789 238.219C287.636 238.732 286.339 239.15 284.898 239.47C283.458 239.823 281.841 240 280.048 240ZM272.747 225.173H286.435C286.435 222.734 285.827 220.857 284.61 219.541C283.394 218.225 281.713 217.567 279.567 217.567C277.71 217.567 276.173 218.225 274.957 219.541C273.74 220.825 273.004 222.702 272.747 225.173Z" fill="white"/>
<path d="M302.906 240C301.017 240 299.304 239.759 297.767 239.278C296.262 238.797 295.014 238.171 294.021 237.401L295.846 233.79C296.679 234.496 297.719 235.09 298.968 235.571C300.249 236.021 301.609 236.245 303.05 236.245C304.843 236.245 306.188 235.956 307.085 235.379C308.013 234.769 308.477 233.999 308.477 233.068C308.477 232.394 308.301 231.8 307.949 231.287C307.629 230.773 307.021 230.276 306.124 229.795C305.227 229.281 303.931 228.736 302.234 228.158C299.896 227.356 298.135 226.409 296.951 225.318C295.798 224.194 295.222 222.654 295.222 220.696C295.222 218.771 296.054 217.15 297.719 215.834C299.416 214.487 301.753 213.813 304.731 213.813C306.332 213.813 307.757 213.989 309.006 214.342C310.254 214.663 311.375 215.08 312.368 215.594L311.167 219.156C310.302 218.642 309.31 218.225 308.189 217.904C307.101 217.583 305.884 217.423 304.539 217.423C302.874 217.423 301.609 217.76 300.745 218.434C299.88 219.108 299.448 219.846 299.448 220.648C299.448 221.418 299.784 222.076 300.457 222.622C301.129 223.168 302.442 223.761 304.395 224.403C307.565 225.462 309.774 226.633 311.023 227.917C312.272 229.201 312.896 230.806 312.896 232.731C312.896 234.978 311.983 236.759 310.158 238.074C308.365 239.358 305.948 240 302.906 240Z" fill="white"/>
</svg>
